<?xml version="1.0"?>
<svg width="26.000000000000004" height="26.000000000000004" xmlns="http://www.w3.org/2000/svg" xmlns:svg="http://www.w3.org/2000/svg">
 <g>
  <title>Layer 1</title>
  <path fill="#d9d9d9" id="svg_1" d="m23.483,6.822c0,-0.467 -0.379999,-0.847 -0.848,-0.847l-19.27,0c-0.467,0 -0.848,0.38 -0.848,0.847l0,1.052c0,0.042 0.004,0.081 0.009,0.115c-0.005,0.033 -0.009,0.066 -0.009,0.1l0,11.090001c0,0.466999 0.38,0.845999 0.848,0.845999l19.271,0c0.468,0 0.848,-0.379 0.848,-0.845999l0,-11.090001c0,-0.044 -0.004999,-0.084 -0.011,-0.121c0.007,-0.045 0.011,-0.091 0.011,-0.136l0,-1.01l-0.000999,0zm-18.953,0.847l16.888,0l-8.418999,6.1l-8.469001,-6.1zm17.259,2.065l0,8.598001l-17.578,0l0,-8.598001l8.297,5.914c0.289,0.207 0.697,0.205 0.983999,0.002l8.297,-5.915999z"/>
 </g>
</svg>